<svg version="1.1" viewBox="0.0 0.0 1057.0498687664042 681.8083989501313" fill="none" stroke="none" stroke-linecap="square" stroke-miterlimit="10" xmlns:xlink="http://www.w3.org/1999/xlink" xmlns="http://www.w3.org/2000/svg"><clipPath id="p.0"><path d="m0 0l1057.0499 0l0 681.8084l-1057.0499 0l0 -681.8084z" clip-rule="nonzero"/></clipPath><g clip-path="url(#p.0)"><path fill="#000000" fill-opacity="0.0" d="m0 0l1057.0499 0l0 681.8084l-1057.0499 0z" fill-rule="evenodd"/><path fill="#cfe2f3" d="m108.821526 178.53018l73.984245 0l0 324.9449l-73.984245 0z" fill-rule="evenodd"/><path stroke="#000000" stroke-width="1.0" stroke-linejoin="round" stroke-linecap="butt" d="m108.821526 178.53018l73.984245 0l0 324.9449l-73.984245 0z" fill-rule="evenodd"/><path fill="#cfe2f3" d="m206.05774 225.6798l73.98425 0l0 230.64568l-73.98425 0z" fill-rule="evenodd"/><path stroke="#000000" stroke-width="1.0" stroke-linejoin="round" stroke-linecap="butt" d="m206.05774 225.6798l73.98425 0l0 230.64568l-73.98425 0z" fill-rule="evenodd"/><path fill="#cfe2f3" d="m303.29398 269.19284l73.98425 0l0 143.62207l-73.98425 0z" fill-rule="evenodd"/><path stroke="#000000" stroke-width="1.0" stroke-linejoin="round" stroke-linecap="butt" d="m303.29398 269.19284l73.98425 0l0 143.62207l-73.98425 0z" fill-rule="evenodd"/><path fill="#fff2cc" d="m435.28217 295.55377l73.98425 0l0 90.897644l-73.98425 0z" fill-rule="evenodd"/><path stroke="#000000" stroke-width="1.0" stroke-linejoin="round" stroke-linecap="butt" d="m435.28217 295.55377l73.98425 0l0 90.897644l-73.98425 0z" fill-rule="evenodd"/><path fill="#000000" d="m184.2546 336.65616l15.984253 0l0 -2.905487l5.81102 5.8110046l-5.81102 5.811035l0 -2.9055176l-15.984253 0z" fill-rule="evenodd"/><path stroke="#000000" stroke-width="1.0" stroke-linejoin="round" stroke-linecap="butt" d="m184.2546 336.65616l15.984253 0l0 -2.905487l5.81102 5.8110046l-5.81102 5.811035l0 -2.9055176l-15.984253 0z" fill-rule="evenodd"/><path fill="#000000" d="m278.54593 341.00787l15.984253 0l0 -2.9055176l5.811035 5.811035l-5.811035 5.8110046l0 -2.905487l-15.984253 0z" fill-rule="evenodd"/><path stroke="#000000" stroke-width="1.0" stroke-linejoin="round" stroke-linecap="butt" d="m278.54593 341.00787l15.984253 0l0 -2.9055176l5.811035 5.811035l-5.811035 5.8110046l0 -2.905487l-15.984253 0z" fill-rule="evenodd"/><path fill="#cfe2f3" d="m835.72705 502.03412l-73.98425 0l0 -324.9449l73.98425 0z" fill-rule="evenodd"/><path stroke="#000000" stroke-width="1.0" stroke-linejoin="round" stroke-linecap="butt" d="m835.72705 502.03412l-73.98425 0l0 -324.9449l73.98425 0z" fill-rule="evenodd"/><path fill="#cfe2f3" d="m738.4908 454.88452l-73.98419 0l0 -230.64568l73.98419 0z" fill-rule="evenodd"/><path stroke="#000000" stroke-width="1.0" stroke-linejoin="round" stroke-linecap="butt" d="m738.4908 454.88452l-73.98419 0l0 -230.64568l73.98419 0z" fill-rule="evenodd"/><path fill="#cfe2f3" d="m641.2546 411.37146l-73.98425 0l0 -143.62204l73.98425 0z" fill-rule="evenodd"/><path stroke="#000000" stroke-width="1.0" stroke-linejoin="round" stroke-linecap="butt" d="m641.2546 411.37146l-73.98425 0l0 -143.62204l73.98425 0z" fill-rule="evenodd"/><path fill="#000000" d="m760.29395 343.90814l-15.984253 0l0 2.9055176l-5.811035 -5.811035l5.811035 -5.811035l0 2.9055176l15.984253 0z" fill-rule="evenodd"/><path stroke="#000000" stroke-width="1.0" stroke-linejoin="round" stroke-linecap="butt" d="m760.29395 343.90814l-15.984253 0l0 2.9055176l-5.811035 -5.811035l5.811035 -5.811035l0 2.9055176l15.984253 0z" fill-rule="evenodd"/><path fill="#000000" d="m666.0026 339.55643l-15.984253 0l0 2.9055176l-5.811035 -5.811035l5.811035 -5.8110046l0 2.905487l15.984253 0z" fill-rule="evenodd"/><path stroke="#000000" stroke-width="1.0" stroke-linejoin="round" stroke-linecap="butt" d="m666.0026 339.55643l-15.984253 0l0 2.9055176l-5.811035 -5.811035l5.811035 -5.8110046l0 2.905487l15.984253 0z" fill-rule="evenodd"/><path fill="#000000" fill-opacity="0.0" d="m555.7533 114.703415l346.70862 0l0 429.3858l-346.70862 0z" fill-rule="evenodd"/><path stroke="#000000" stroke-width="3.0" stroke-linejoin="round" stroke-linecap="butt" d="m555.7533 114.703415l346.70862 0l0 429.3858l-346.70862 0z" fill-rule="evenodd"/><path fill="#000000" d="m380.09186 338.1076l49.370087 0l0 -2.9055176l5.811035 5.811035l-5.811035 5.811035l0 -2.9055176l-49.370087 0z" fill-rule="evenodd"/><path stroke="#000000" stroke-width="1.0" stroke-linejoin="round" stroke-linecap="butt" d="m380.09186 338.1076l49.370087 0l0 -2.9055176l5.811035 5.811035l-5.811035 5.811035l0 -2.9055176l-49.370087 0z" fill-rule="evenodd"/><path fill="#000000" d="m564.3228 342.4672l-49.24408 0l0 2.9055176l-5.8110046 -5.811035l5.8110046 -5.8110046l0 2.905487l49.24408 0z" fill-rule="evenodd"/><path stroke="#000000" stroke-width="1.0" stroke-linejoin="round" stroke-linecap="butt" d="m564.3228 342.4672l-49.24408 0l0 2.9055176l-5.8110046 -5.811035l5.8110046 -5.8110046l0 2.905487l49.24408 0z" fill-rule="evenodd"/><path fill="#000000" fill-opacity="0.0" d="m52.24147 124.86877l346.70868 0l0 429.3858l-346.70868 0z" fill-rule="evenodd"/><path stroke="#000000" stroke-width="3.0" stroke-linejoin="round" stroke-linecap="butt" d="m52.24147 124.86877l346.70868 0l0 429.3858l-346.70868 0z" fill-rule="evenodd"/><path fill="#000000" fill-opacity="0.0" d="m631.0551 573.1102l237.92126 0l0 58.173218l-237.92126 0z" fill-rule="evenodd"/><path fill="#000000" d="m711.97314 613.25214q-2.171875 0 -3.484375 -1.140625l-0.15625 0.71875l-5.9375 0l4.609375 -21.609375l6.125 -0.796875l-3.953125 18.421875q0.375 0.265625 1.09375 0.265625q1.46875 0 2.734375 -1.90625q1.265625 -1.921875 2.0 -5.09375q0.75 -3.171875 0.75 -6.421875q0 -2.890625 -1.0625 -4.140625q-1.046875 -1.25 -2.953125 -1.25q-2.234375 0 -4.0 0.875q-1.75 0.859375 -2.734375 2.46875q-0.984375 1.59375 -0.984375 3.78125q0 1.046875 0.21875 1.515625q0.21875 0.453125 0.21875 1.3125q-2.546875 0 -3.640625 -0.875q-1.09375 -0.875 -1.09375 -2.75q0 -2.421875 1.75 -4.515625q1.765625 -2.109375 4.625 -3.34375q2.875 -1.25 6.1875 -1.25q4.703125 0 6.953125 2.8125q2.25 2.796875 2.25 7.0625q0 3.75 -1.28125 7.40625q-1.265625 3.65625 -3.453125 6.0625q-2.1875 2.390625 -4.78125 2.390625zm14.012939 -0.234375q-2.640625 0 -4.15625 -1.40625q-1.5 -1.421875 -1.5 -4.328125q0 -2.328125 0.90625 -5.109375q0.90625 -2.78125 3.015625 -4.859375q2.109375 -2.078125 5.375 -2.078125q4.1875 0 4.1875 3.71875q0 2.0 -1.125 3.65625q-1.125 1.640625 -2.96875 2.625q-1.828125 0.984375 -3.3125 1.09375q-0.03125 0.375 -0.03125 0.65625q0 1.3125 0.359375 1.671875q0.359375 0.359375 1.296875 0.359375q1.546875 0 2.640625 -0.71875q1.109375 -0.71875 2.71875 -2.515625l2.546875 0q-4.328125 7.234375 -9.953125 7.234375zm0.859375 -9.546875q0.171875 0 1.09375 -0.671875q0.9375 -0.671875 1.515625 -1.71875q0.578125 -1.046875 0.578125 -2.1875q0 -0.65625 -0.140625 -0.65625q-0.765625 0 -1.75 1.796875q-0.984375 1.796875 -1.296875 3.4375zm11.42865 9.546875q-2.640625 0 -4.15625 -1.40625q-1.5 -1.421875 -1.5 -4.328125q0 -2.328125 0.921875 -5.109375q0.921875 -2.78125 3.015625 -4.859375q2.09375 -2.078125 5.328125 -2.078125q2.203125 0 3.203125 1.03125q1.015625 1.015625 1.015625 2.5625q0 1.359375 -0.65625 2.171875q-0.65625 0.8125 -1.703125 0.8125q-0.734375 0 -1.921875 -0.765625q0.53125 -1.4375 0.53125 -2.15625q0 -0.421875 -0.078125 -0.53125q-0.078125 -0.125 -0.15625 -0.125q-0.59375 0 -1.4375 1.375q-0.84375 1.375 -1.4375 3.53125q-0.578125 2.15625 -0.578125 3.84375q0 1.3125 0.359375 1.671875q0.359375 0.359375 1.296875 0.359375q1.546875 0 2.640625 -0.71875q1.109375 -0.71875 2.71875 -2.515625l2.546875 0q-4.328125 7.234375 -9.953125 7.234375zm12.381775 -0.0625q-2.625 0 -4.203125 -1.390625q-1.578125 -1.390625 -1.578125 -4.3125q0 -2.296875 0.9375 -5.078125q0.9375 -2.78125 3.078125 -4.859375q2.140625 -2.078125 5.40625 -2.078125q4.765625 0 4.765625 5.765625l-0.609375 0q0.140625 -0.515625 0.296875 -0.59375q0.9375 0 2.21875 -0.515625q1.28125 -0.515625 3.0625 -1.8125l0.6875 2.109375q-1.28125 1.359375 -2.875 2.09375q-1.59375 0.71875 -2.9375 0.953125q-0.21875 2.515625 -1.34375 4.828125q-1.109375 2.3125 -2.9375 3.609375q-1.8125 1.28125 -3.96875 1.28125zm1.28125 -4.1875q0.46875 0 1.09375 -0.71875q0.625 -0.734375 1.171875 -2.15625q0.546875 -1.421875 0.703125 -2.609375q-0.78125 -0.171875 -0.78125 -1.859375q0 -1.75 0.96875 -2.15625q-0.015625 -0.421875 -0.140625 -0.59375q-0.109375 -0.1875 -0.390625 -0.1875q-0.703125 0 -1.578125 1.34375q-0.859375 1.34375 -1.453125 3.40625q-0.578125 2.0625 -0.578125 3.59375q0 1.328125 0.203125 1.640625q0.203125 0.296875 0.78125 0.296875zm11.93866 4.25q-2.109375 0 -3.515625 -1.4375q-1.40625 -1.4375 -1.40625 -4.359375q0 -2.484375 0.984375 -5.21875q1.0 -2.734375 3.015625 -4.6875q2.03125 -1.953125 4.890625 -1.953125q1.515625 0 2.375 0.609375q0.875 0.59375 0.875 1.671875l-0.65625 0.125l1.015625 -7.953125l6.109375 -0.828125l-3.859375 18.21875q-0.125 0.421875 -0.125 0.875q0 0.34375 0.09375 0.4375q0.109375 0.09375 0.5625 0.09375q0.609375 0 1.109375 -0.59375q0.515625 -0.609375 1.0 -2.234375l2.75 0q-2.40625 7.046875 -7.34375 7.046875q-1.5625 0 -2.5625 -0.859375q-1.0 -0.859375 -0.890625 -1.125q-0.03125 0.328125 -1.34375 1.25q-1.3125 0.921875 -3.078125 0.921875zm2.078125 -4.40625q0.515625 0 1.125 -0.546875q0.609375 -0.546875 0.84375 -1.53125l0 -0.15625l1.546875 -7.25q-0.125 -0.46875 -0.640625 -0.46875q-0.9375 0 -1.828125 1.296875q-0.890625 1.296875 -1.453125 3.296875q-0.546875 2.0 -0.546875 3.515625q0 1.3125 0.265625 1.578125q0.28125 0.265625 0.6875 0.265625zm15.456299 4.40625q-2.640625 0 -4.15625 -1.40625q-1.5 -1.421875 -1.5 -4.328125q0 -2.328125 0.90625 -5.109375q0.90625 -2.78125 3.015625 -4.859375q2.109375 -2.078125 5.375 -2.078125q4.1875 0 4.1875 3.71875q0 2.0 -1.125 3.65625q-1.125 1.640625 -2.96875 2.625q-1.828125 0.984375 -3.3125 1.09375q-0.03125 0.375 -0.03125 0.65625q0 1.3125 0.359375 1.671875q0.359375 0.359375 1.296875 0.359375q1.546875 0 2.640625 -0.71875q1.109375 -0.71875 2.71875 -2.515625l2.546875 0q-4.328125 7.234375 -9.953125 7.234375zm0.859375 -9.546875q0.171875 0 1.09375 -0.671875q0.9375 -0.671875 1.515625 -1.71875q0.578125 -1.046875 0.578125 -2.1875q0 -0.65625 -0.140625 -0.65625q-0.765625 0 -1.75 1.796875q-0.984375 1.796875 -1.296875 3.4375zm8.49115 -7.953125l5.9375 0l-0.4375 1.328125q-0.078125 -0.171875 0.90625 -0.75q1.0 -0.578125 2.1875 -0.578125q1.34375 0 2.109375 0.921875q0.765625 0.90625 0.765625 2.140625q0 1.171875 -0.796875 2.078125q-0.78125 0.90625 -2.171875 0.90625q-1.03125 0 -1.421875 -0.53125q-0.375 -0.53125 -0.53125 -1.296875q-0.078125 -0.328125 0 -0.421875q0.09375 -0.09375 0.09375 0.140625q-0.484375 0 -0.84375 0.21875q-0.359375 0.203125 -0.890625 0.6875l-2.625 12.46875l-5.953125 0l3.671875 -17.3125z" fill-rule="nonzero"/><path fill="#000000" fill-opacity="0.0" d="m124.08924 573.1102l237.92126 0l0 58.173218l-237.92126 0z" fill-rule="evenodd"/><path fill="#000000" d="m200.66339 613.4084q-3.1875 0 -4.875 -1.796875q-1.671875 -1.796875 -1.671875 -4.5q0 -1.84375 0.765625 -3.703125q0.765625 -1.875 2.234375 -3.296875q1.46875 -1.421875 2.28125 -1.53125q-0.203125 -0.015625 -0.765625 -1.15625q-0.546875 -1.15625 -0.546875 -2.4375q0 -1.828125 1.0 -3.578125q1.0 -1.75 2.765625 -2.84375q1.765625 -1.109375 3.90625 -1.109375q2.25 0 3.734375 1.234375q1.5 1.21875 1.5 3.421875q0 1.625 -0.875 2.8125q-0.859375 1.171875 -2.15625 1.171875q-1.1875 0 -2.5625 -1.84375q1.171875 -0.40625 1.484375 -1.078125q0.328125 -0.671875 0.328125 -1.390625q0 -0.609375 -0.3125 -0.859375q-0.296875 -0.265625 -0.796875 -0.265625q-0.671875 0 -1.28125 0.53125q-0.59375 0.515625 -0.96875 1.421875q-0.359375 0.90625 -0.359375 1.90625q0 1.328125 0.671875 2.3125q0.6875 0.96875 4.765625 2.03125q-4.171875 0.890625 -5.375 2.03125q-1.1875 1.140625 -1.875 2.671875q-0.671875 1.515625 -0.671875 2.875q0 1.21875 0.578125 1.90625q0.578125 0.671875 1.796875 0.671875q1.453125 0 3.03125 -0.796875q1.578125 -0.796875 2.609375 -2.65625l1.890625 0.84375q-1.609375 3.53125 -4.359375 5.265625q-2.75 1.734375 -5.890625 1.734375zm20.125534 -0.390625q-2.25 0 -3.34375 -1.234375q-1.078125 -1.25 -1.078125 -3.03125q0 -0.734375 0.15625 -1.609375q0.171875 -0.890625 0.34375 -1.703125q0.1875 -0.8125 0.25 -1.03125q0.25 -1.109375 0.46875 -2.15625q0.21875 -1.046875 0.21875 -1.65625q0 -0.984375 -0.5 -0.984375q-0.515625 0 -1.015625 0.65625q-0.5 0.640625 -0.84375 1.796875l-2.28125 10.765625l-5.953125 0l3.671875 -17.3125l5.953125 0l-0.375 0.75q0.515625 -0.875 2.953125 -0.875q1.890625 0 3.046875 1.078125q1.171875 1.078125 1.171875 3.1875q0 1.0 -0.234375 2.171875q-0.234375 1.171875 -0.65625 2.8125q-0.25 1.0 -0.453125 1.90625q-0.203125 0.90625 -0.203125 1.375q0 0.40625 0.109375 0.546875q0.125 0.140625 0.515625 0.140625q0.65625 0 1.09375 -0.53125q0.4375 -0.53125 1.15625 -2.296875l2.6875 0q-1.53125 4.578125 -3.25 5.90625q-1.71875 1.328125 -3.609375 1.328125zm9.191284 0q-2.640625 0 -4.15625 -1.40625q-1.5 -1.421875 -1.5 -4.328125q0 -2.328125 0.921875 -5.109375q0.921875 -2.78125 3.015625 -4.859375q2.09375 -2.078125 5.328125 -2.078125q2.203125 0 3.203125 1.03125q1.015625 1.015625 1.015625 2.5625q0 1.359375 -0.65625 2.171875q-0.65625 0.8125 -1.703125 0.8125q-0.734375 0 -1.921875 -0.765625q0.53125 -1.4375 0.53125 -2.15625q0 -0.421875 -0.078125 -0.53125q-0.078125 -0.125 -0.15625 -0.125q-0.59375 0 -1.4375 1.375q-0.84375 1.375 -1.4375 3.53125q-0.578125 2.15625 -0.578125 3.84375q0 1.3125 0.359375 1.671875q0.359375 0.359375 1.296875 0.359375q1.546875 0 2.640625 -0.71875q1.109375 -0.71875 2.71875 -2.515625l2.546875 0q-4.328125 7.234375 -9.953125 7.234375zm12.381775 -0.0625q-2.625 0 -4.203125 -1.390625q-1.578125 -1.390625 -1.578125 -4.3125q0 -2.296875 0.9375 -5.078125q0.9375 -2.78125 3.078125 -4.859375q2.140625 -2.078125 5.40625 -2.078125q4.765625 0 4.765625 5.765625l-0.609375 0q0.140625 -0.515625 0.296875 -0.59375q0.9375 0 2.2187347 -0.515625q1.28125 -0.515625 3.0625 -1.8125l0.6875 2.109375q-1.28125 1.359375 -2.875 2.09375q-1.5937347 0.71875 -2.9374847 0.953125q-0.21875 2.515625 -1.34375 4.828125q-1.109375 2.3125 -2.9375 3.609375q-1.8125 1.28125 -3.96875 1.28125zm1.28125 -4.1875q0.46875 0 1.09375 -0.71875q0.625 -0.734375 1.171875 -2.15625q0.546875 -1.421875 0.703125 -2.609375q-0.78125 -0.171875 -0.78125 -1.859375q0 -1.75 0.96875 -2.15625q-0.015625 -0.421875 -0.140625 -0.59375q-0.109375 -0.1875 -0.390625 -0.1875q-0.703125 0 -1.578125 1.34375q-0.859375 1.34375 -1.453125 3.40625q-0.578125 2.0625 -0.578125 3.59375q0 1.328125 0.203125 1.640625q0.203125 0.296875 0.78125 0.296875zm11.938644 4.25q-2.109375 0 -3.5156097 -1.4375q-1.40625 -1.4375 -1.40625 -4.359375q0 -2.484375 0.984375 -5.21875q0.99998474 -2.734375 3.0156097 -4.6875q2.03125 -1.953125 4.890625 -1.953125q1.515625 0 2.375 0.609375q0.875 0.59375 0.875 1.671875l-0.65625 0.125l1.015625 -7.953125l6.109375 -0.828125l-3.859375 18.21875q-0.125 0.421875 -0.125 0.875q0 0.34375 0.09375 0.4375q0.109375 0.09375 0.5625 0.09375q0.609375 0 1.109375 -0.59375q0.515625 -0.609375 1.0 -2.234375l2.75 0q-2.40625 7.046875 -7.34375 7.046875q-1.5625 0 -2.5625 -0.859375q-1.0 -0.859375 -0.890625 -1.125q-0.03125 0.328125 -1.34375 1.25q-1.3125 0.921875 -3.078125 0.921875zm2.078125 -4.40625q0.515625 0 1.125 -0.546875q0.609375 -0.546875 0.84375 -1.53125l0 -0.15625l1.546875 -7.25q-0.125 -0.46875 -0.640625 -0.46875q-0.9375 0 -1.828125 1.296875q-0.890625 1.296875 -1.453125 3.296875q-0.546875 2.0 -0.546875 3.515625q0 1.3125 0.265625 1.578125q0.28125 0.265625 0.6875 0.265625zm15.456299 4.40625q-2.640625 0 -4.15625 -1.40625q-1.5 -1.421875 -1.5 -4.328125q0 -2.328125 0.90625 -5.109375q0.90625 -2.78125 3.015625 -4.859375q2.109375 -2.078125 5.375 -2.078125q4.1875 0 4.1875 3.71875q0 2.0 -1.125 3.65625q-1.125 1.640625 -2.96875 2.625q-1.828125 0.984375 -3.3125 1.09375q-0.03125 0.375 -0.03125 0.65625q0 1.3125 0.359375 1.671875q0.359375 0.359375 1.296875 0.359375q1.546875 0 2.640625 -0.71875q1.109375 -0.71875 2.71875 -2.515625l2.546875 0q-4.328125 7.234375 -9.953125 7.234375zm0.859375 -9.546875q0.171875 0 1.09375 -0.671875q0.9375 -0.671875 1.515625 -1.71875q0.578125 -1.046875 0.578125 -2.1875q0 -0.65625 -0.140625 -0.65625q-0.765625 0 -1.75 1.796875q-0.984375 1.796875 -1.296875 3.4375zm8.49115 -7.953125l5.9375 0l-0.4375 1.328125q-0.078125 -0.171875 0.90625 -0.75q1.0 -0.578125 2.1875 -0.578125q1.34375 0 2.109375 0.921875q0.765625 0.90625 0.765625 2.140625q0 1.171875 -0.796875 2.078125q-0.78125 0.90625 -2.171875 0.90625q-1.03125 0 -1.421875 -0.53125q-0.375 -0.53125 -0.53125 -1.296875q-0.078125 -0.328125 0 -0.421875q0.09375 -0.09375 0.09375 0.140625q-0.484375 0 -0.84375 0.21875q-0.359375 0.203125 -0.890625 0.6875l-2.625 12.46875l-5.953125 0l3.671875 -17.3125z" fill-rule="nonzero"/><path fill="#000000" fill-opacity="0.0" d="m361.03937 37.860893l237.92126 0l0 58.173225l-237.92126 0z" fill-rule="evenodd"/><path fill="#000000" d="m428.88675 78.12777q-1.453125 0 -2.640625 -0.65625q-1.1875 -0.671875 -1.1875 -2.375q0 -0.953125 0.84375 -3.078125q1.203125 1.328125 1.578125 1.53125q0.375 0.1875 0.796875 0.1875q1.171875 0 1.828125 -1.53125q0.671875 -1.53125 0.671875 -3.5625q0 -3.421875 -2.375 -3.421875q-0.796875 0 -0.921875 0.015625l-2.640625 12.34375l-5.953125 0l4.609375 -21.609375l6.109375 -0.796875l-2.140625 7.703125l0 -0.5q1.0 0 1.90625 -0.671875q0.90625 -0.671875 1.46875 -1.734375q0.578125 -1.0625 0.578125 -2.125q0 -1.1875 -0.84375 -1.984375q-0.84375 -0.8125 -2.71875 -0.8125q-1.796875 0 -3.5 0.8125q-1.703125 0.8125 -2.78125 2.421875q-1.0625 1.59375 -1.0625 3.890625q0 1.03125 0.21875 1.5q0.234375 0.453125 0.234375 1.328125q-2.59375 0 -3.671875 -0.859375q-1.0625 -0.859375 -1.0625 -2.734375q0 -2.421875 1.75 -4.515625q1.75 -2.09375 4.578125 -3.359375q2.828125 -1.265625 5.9375 -1.265625q2.375 0 4.0625 0.78125q1.703125 0.765625 2.546875 2.09375q0.859375 1.3125 0.859375 2.875q0 1.65625 -0.921875 3.1875q-0.921875 1.515625 -1.078125 1.59375q0.453125 0.0625 1.515625 1.6875q1.0625 1.609375 1.0625 3.765625q0 1.9375 -0.734375 4.203125q-0.71875 2.265625 -2.46875 3.96875q-1.734375 1.703125 -4.453125 1.703125zm12.793274 -0.421875q-2.625 0 -4.203125 -1.390625q-1.578125 -1.390625 -1.578125 -4.3125q0 -2.296875 0.9375 -5.078125q0.9375 -2.78125 3.078125 -4.859375q2.140625 -2.078125 5.40625 -2.078125q4.765625 0 4.765625 5.765625l-0.609375 0q0.140625 -0.515625 0.296875 -0.59375q0.9375 0 2.21875 -0.515625q1.28125 -0.515625 3.0625 -1.8125l0.6875 2.109375q-1.28125 1.359375 -2.875 2.09375q-1.59375 0.71875 -2.9375 0.953125q-0.21875 2.515625 -1.34375 4.828125q-1.109375 2.3125 -2.9375 3.609375q-1.8125 1.28125 -3.96875 1.28125zm1.28125 -4.1875q0.46875 0 1.09375 -0.71875q0.625 -0.734375 1.171875 -2.15625q0.546875 -1.421875 0.703125 -2.609375q-0.78125 -0.171875 -0.78125 -1.859375q0 -1.75 0.96875 -2.15625q-0.015625 -0.421875 -0.140625 -0.59375q-0.109375 -0.1875 -0.390625 -0.1875q-0.703125 0 -1.578125 1.34375q-0.859375 1.34375 -1.453125 3.40625q-0.578125 2.0625 -0.578125 3.59375q0 1.328125 0.203125 1.640625q0.203125 0.296875 0.78125 0.296875zm11.266785 4.25q-1.828125 0 -2.953125 -1.15625q-1.125 -1.15625 -1.125 -3.328125q0 -0.875 0.265625 -2.21875l1.75 -8.203125l-1.0625 0l0.546875 -2.59375l1.046875 0l0.953125 -4.359375l6.125 -0.828125l-1.125 5.1875l1.90625 0l-0.5 2.59375l-1.9375 0l-1.9375 9.09375q-0.109375 0.40625 -0.109375 0.875q0 0.359375 0.09375 0.453125q0.09375 0.078125 0.546875 0.078125q0.671875 0 1.3125 -0.625q0.640625 -0.640625 1.078125 -2.203125l2.765625 0q-1.5625 4.546875 -3.59375 5.890625q-2.03125 1.34375 -4.046875 1.34375zm8.544037 0q-1.828125 0 -2.953125 -1.15625q-1.125 -1.15625 -1.125 -3.328125q0 -0.875 0.265625 -2.21875l1.75 -8.203125l-1.0625 0l0.546875 -2.59375l1.046875 0l0.953125 -4.359375l6.125 -0.828125l-1.125 5.1875l1.90625 0l-0.5 2.59375l-1.9375 0l-1.9375 9.09375q-0.109375 0.40625 -0.109375 0.875q0 0.359375 0.09375 0.453125q0.09375 0.078125 0.546875 0.078125q0.671875 0 1.3125 -0.625q0.640625 -0.640625 1.078125 -2.203125l2.765625 0q-1.5625 4.546875 -3.59375 5.890625q-2.03125 1.34375 -4.046875 1.34375zm8.544006 0q-1.828125 0 -2.953125 -1.15625q-1.125 -1.15625 -1.125 -3.328125q0 -0.875 0.265625 -2.21875l3.515625 -16.5l6.109375 -0.828125l-3.859375 18.21875q-0.109375 0.40625 -0.109375 0.875q0 0.359375 0.09375 0.453125q0.09375 0.078125 0.546875 0.078125q0.671875 0 1.3125 -0.625q0.640625 -0.640625 1.078125 -2.203125l2.765625 0q-1.5625 4.546875 -3.59375 5.890625q-2.03125 1.34375 -4.046875 1.34375zm9.950287 0q-2.640625 0 -4.15625 -1.40625q-1.5 -1.421875 -1.5 -4.328125q0 -2.328125 0.90625 -5.109375q0.90625 -2.78125 3.015625 -4.859375q2.109375 -2.078125 5.375 -2.078125q4.1875 0 4.1875 3.71875q0 2.0 -1.125 3.65625q-1.125 1.640625 -2.96875 2.625q-1.828125 0.984375 -3.3125 1.09375q-0.03125 0.375 -0.03125 0.65625q0 1.3125 0.359375 1.671875q0.359375 0.359375 1.296875 0.359375q1.546875 0 2.640625 -0.71875q1.109375 -0.71875 2.71875 -2.515625l2.546875 0q-4.328125 7.234375 -9.953125 7.234375zm0.859375 -9.546875q0.171875 0 1.09375 -0.671875q0.9375 -0.671875 1.515625 -1.71875q0.578125 -1.046875 0.578125 -2.1875q0 -0.65625 -0.140625 -0.65625q-0.765625 0 -1.75 1.796875q-0.984375 1.796875 -1.296875 3.4375zm18.3974 9.546875q-2.25 0 -3.34375 -1.234375q-1.078125 -1.25 -1.078125 -3.03125q0 -0.734375 0.15625 -1.609375q0.171875 -0.890625 0.34375 -1.703125q0.1875 -0.8125 0.25 -1.03125q0.25 -1.109375 0.46875 -2.15625q0.21875 -1.046875 0.21875 -1.65625q0 -0.984375 -0.5 -0.984375q-0.515625 0 -1.015625 0.65625q-0.5 0.640625 -0.84375 1.796875l-2.28125 10.765625l-5.953125 0l3.671875 -17.3125l5.953125 0l-0.375 0.75q0.515625 -0.875 2.953125 -0.875q1.890625 0 3.046875 1.078125q1.171875 1.078125 1.171875 3.1875q0 1.0 -0.234375 2.171875q-0.234375 1.171875 -0.65625 2.8125q-0.25 1.0 -0.453125 1.90625q-0.203125 0.90625 -0.203125 1.375q0 0.40625 0.109375 0.546875q0.125 0.140625 0.515625 0.140625q0.65625 0 1.09375 -0.53125q0.4375 -0.53125 1.15625 -2.296875l2.6875 0q-1.53125 4.578125 -3.25 5.90625q-1.71875 1.328125 -3.609375 1.328125zm9.191284 0q-2.640625 0 -4.15625 -1.40625q-1.5 -1.421875 -1.5 -4.328125q0 -2.328125 0.90625 -5.109375q0.90625 -2.78125 3.015625 -4.859375q2.109375 -2.078125 5.3749695 -2.078125q4.1875 0 4.1875 3.71875q0 2.0 -1.125 3.65625q-1.125 1.640625 -2.96875 2.625q-1.8280945 0.984375 -3.3124695 1.09375q-0.03125 0.375 -0.03125 0.65625q0 1.3125 0.359375 1.671875q0.359375 0.359375 1.296875 0.359375q1.5468445 0 2.6405945 -0.71875q1.109375 -0.71875 2.71875 -2.515625l2.546875 0q-4.328125 7.234375 -9.9530945 7.234375zm0.859375 -9.546875q0.171875 0 1.09375 -0.671875q0.9374695 -0.671875 1.5155945 -1.71875q0.578125 -1.046875 0.578125 -2.1875q0 -0.65625 -0.140625 -0.65625q-0.765625 0 -1.7499695 1.796875q-0.984375 1.796875 -1.296875 3.4375zm11.428619 9.546875q-2.640625 0 -4.15625 -1.40625q-1.5 -1.421875 -1.5 -4.328125q0 -2.328125 0.921875 -5.109375q0.921875 -2.78125 3.015625 -4.859375q2.09375 -2.078125 5.328125 -2.078125q2.203125 0 3.203125 1.03125q1.015625 1.015625 1.015625 2.5625q0 1.359375 -0.65625 2.171875q-0.65625 0.8125 -1.703125 0.8125q-0.734375 0 -1.921875 -0.765625q0.53125 -1.4375 0.53125 -2.15625q0 -0.421875 -0.078125 -0.53125q-0.078125 -0.125 -0.15625 -0.125q-0.59375 0 -1.4375 1.375q-0.84375 1.375 -1.4375 3.53125q-0.578125 2.15625 -0.578125 3.84375q0 1.3125 0.359375 1.671875q0.359375 0.359375 1.296875 0.359375q1.546875 0 2.640625 -0.71875q1.109375 -0.71875 2.71875 -2.515625l2.546875 0q-4.328125 7.234375 -9.953125 7.234375zm19.74115 0q-2.234375 0 -3.46875 -1.125q-1.21875 -1.140625 -1.21875 -3.171875q0 -0.828125 0.203125 -1.8125l0.265625 -1.25q0.109375 -0.46875 0.109375 -1.03125q0 -0.890625 -0.5 -0.890625q-0.359375 0 -0.8125 0.234375q-0.453125 0.234375 -0.953125 0.65625l-1.734375 8.203125l-5.953125 0l4.90625 -23.015625l6.109375 -0.828125l-2.203125 10.40625l4.921875 -3.875l5.5 0l-8.5 5.109375q0.390625 -0.796875 1.0625 -0.796875q2.015625 0 3.09375 1.28125q1.078125 1.265625 1.078125 3.125q0 0.75 -0.140625 1.359375l-0.359375 1.609375q-0.140625 0.515625 -0.140625 0.875q0 0.53125 0.59375 0.53125q0.53125 0 0.71875 -0.09375q0.1875 -0.109375 1.109375 -0.109375q-0.140625 1.953125 -0.765625 2.828125q-0.609375 0.859375 -1.4375 1.328125q-0.828125 0.453125 -1.484375 0.453125z" fill-rule="nonzero"/></g></svg>